<svg xmlns="http://www.w3.org/2000/svg" width="24" height="24" viewBox="0 0 24 24" fill="#3bcff0"><path d="M19.869 5H4.135a2.052 2.052 0 00-1.509.627A2.052 2.052 0 002 7.131v10.02c-.006.57.22 1.118.626 1.517.4.416.95.652 1.528.656h15.715a2.112 2.112 0 001.504-.656c.407-.4.633-.947.627-1.516V7.132A2.139 2.139 0 0019.869 5zM4.135 6.407h15.734a.736.736 0 01.528.209c.144.134.23.32.241.516v1.01H3.366v-1.01a.764.764 0 01.242-.517.738.738 0 01.528-.21l-.001.002zm15.734 11.47H4.135a.741.741 0 01-.527-.21.765.765 0 01-.242-.516V10.67h17.271v6.482a.758.758 0 01-.241.516.744.744 0 01-.527.21v-.002zm-14.72-1.824h6.853V14.8H5.147l.002 1.253zm0-2.131h8.915v-1.253H5.147l.002 1.253z" fill-rule="evenodd"></path></svg>