<svg xmlns="http://www.w3.org/2000/svg" width="90" height="90" viewBox="0 0 24 24" fill="#4bcd3e"><path d="M19.398 19.117c.531 0 .984-.187 1.359-.562.375-.375.563-.829.563-1.36a1.88 1.88 0 00-.563-1.383c-.375-.375-.828-.562-1.359-.562s-.988.187-1.371.562a1.86 1.86 0 00-.574 1.383c0 .531.191.985.574 1.36.383.375.84.562 1.371.562zM11.898 2.5c-.531 0-.984.187-1.359.562a1.853 1.853 0 00-.563 1.36c0 .531.188.988.563 1.371.375.383.836.574 1.382.574.532 0 .985-.191 1.36-.574.375-.383.562-.84.562-1.371 0-.532-.187-.985-.562-1.36a1.852 1.852 0 00-1.36-.562h-.023zm4.781 16.734l.024.024a3.535 3.535 0 01-.504-.961 3.324 3.324 0 01-.176-1.078c0-.954.332-1.762.996-2.426a3.274 3.274 0 012.402-.996h.282V13c0-.797-.11-1.563-.328-2.297a8.304 8.304 0 00-.973-2.016 7.746 7.746 0 00-1.488-1.664 8.279 8.279 0 00-1.899-1.195l-.023.023a3.177 3.177 0 01-.68 1.008 3.76 3.76 0 01-1.078.715c-.406.18-.852.27-1.336.27a3.249 3.249 0 01-1.863-.563 3.569 3.569 0 01-1.254-1.453l-.047.023a7.995 7.995 0 00-1.852 1.196 8.052 8.052 0 00-1.453 1.64 8.042 8.042 0 00-.961 2.016 8.34 8.34 0 00-.351 2.273v.774h.281c.953.015 1.762.355 2.426 1.019.664.664.996 1.473.996 2.426a3.32 3.32 0 01-.656 1.992H7.14a7.53 7.53 0 002.203 1.196 7.762 7.762 0 002.555.421c.891 0 1.742-.14 2.555-.421a7.207 7.207 0 002.179-1.196l.047.047zm-12.281-.117c.531 0 .984-.187 1.359-.562.375-.375.563-.829.563-1.36a1.88 1.88 0 00-.563-1.383c-.375-.375-.828-.562-1.359-.562s-.988.187-1.371.562a1.86 1.86 0 00-.574 1.383c0 .531.191.985.574 1.36.383.375.84.562 1.371.562zm16.758-4.781c.5.297.902.695 1.207 1.195.305.5.457 1.055.457 1.664 0 .938-.332 1.742-.996 2.414-.664.672-1.465 1.008-2.403 1.008h-.023c-.281 0-.555-.035-.82-.105a3.038 3.038 0 01-.727-.293 9.53 9.53 0 01-2.719 1.558 9.021 9.021 0 01-3.211.574 9.165 9.165 0 01-3.222-.562 9.415 9.415 0 01-2.731-1.57h.024a3.542 3.542 0 01-.75.293c-.266.07-.539.105-.821.105-.937 0-1.742-.336-2.414-1.008C1.336 18.937 1 18.133 1 17.195v-.023c0-.469.089-.91.269-1.325.18-.414.426-.777.738-1.089.094-.094.196-.18.305-.258.109-.078.227-.156.352-.235l.023.047a4.754 4.754 0 01-.094-.656 9.517 9.517 0 01.399-3.492 9.564 9.564 0 011.23-2.461 9.616 9.616 0 011.863-1.992 8.764 8.764 0 012.391-1.407 3.36 3.36 0 01.293-1.277c.18-.398.418-.738.715-1.019a3.22 3.22 0 011.066-.739A3.304 3.304 0 0111.875 1h.023c.922 0 1.711.32 2.367.961.656.64.992 1.422 1.008 2.343l.07.024c.86.344 1.649.805 2.368 1.383a9.04 9.04 0 011.874 1.992c.516.75.922 1.57 1.219 2.461.281.906.422 1.851.422 2.836v-.024.211c0 .203-.008.403-.023.598l-.047.551z" fill-rule="evenodd"></path></svg>