<svg xmlns="http://www.w3.org/2000/svg" width="24" height="24" viewBox="0 0 24 24" fill="#3bcff0"><path d="M20.773 8.65l-2.451-5.57a1.993 1.993 0 00-.398-.572 1.68 1.68 0 00-.57-.378 1.169 1.169 0 00-.275-.097 1.594 1.594 0 00-.624 0c-.095.02-.188.053-.275.097h.02L5.787 6.86c-.183.07-.348.18-.483.324a1.488 1.488 0 00-.312.496v.022a.762.762 0 00-.054.226c-.008.08-.011.162-.011.249s.007.173.02.259l.044.238a2.144 2.144 0 00-1.365.723c-.36.39-.556.904-.55 1.436v2.271H2v4.579h1.076v2.137c-.006.56.21 1.101.602 1.501.376.413.905.651 1.462.659V22H22V8.65h-1.227zM4.453 19.707V17.68h3.44a2.254 2.254 0 002.215-1.75v-.022c.03-.077.052-.156.064-.238.015-.091.022-.184.022-.276v-.172a3.6 3.6 0 00-.055-.325 1.607 1.607 0 00-.096-.302l.021.021a2.42 2.42 0 00-.742-1.013 2.143 2.143 0 00-1.175-.482h-3.67v-2.29a.764.764 0 01.205-.529.805.805 0 01.483-.27h15.479v10.56H5.14a.71.71 0 01-.48-.248.764.764 0 01-.204-.529v-.086l-.003-.022zm-1.225-5.42h4.794c.26.022.501.141.677.334.178.19.274.442.269.702v.108c-.014.111-.043.22-.086.324a.82.82 0 01-.172.259h.021c-.098.114-.22.206-.355.27a1.296 1.296 0 01-.44.119H3.228v-2.117zm2.944-5.744a1.248 1.248 0 01-.032-.12.6.6 0 01-.012-.096.675.675 0 01.044-.238v.022c0-.042.018-.08.048-.108a.342.342 0 01.086-.065L16.71 3.23a.046.046 0 00.032-.011l.011-.011c.012 0 .024.003.032.011.01.008.02.012.033.011h.107c.07.028.136.069.193.119a.32.32 0 01.108.184l.323.691-9.72 4.426H6.194l-.022-.107zm13.267.064h-7.138l5.956-2.677 1.182 2.677z" fill-rule="evenodd"></path></svg>