<svg xmlns="http://www.w3.org/2000/svg" viewBox="0 0 352.253 109.4" height="257.987" width="1067.947"><g fill="#fff"><path d="M239.895 53.263c-3.494 0-7.124-.96-7.124-.96V27.819s3.161-.933 6.728-.933c8.369 0 10.384 5.923 10.384 12.95 0 2.507.262 13.427-9.988 13.427zm.772-35.403c-8.296 0-13.943 1.978-16.652 3.17-1.636.705-1.636 1.655-1.636 2.498v55.518c0 .66.536 1.196 1.196 1.196h8c.66 0 1.196-.537 1.196-1.196V61.44c1.553.33 4.302.944 8.781.944 15.917 0 19.245-14.325 19.245-22.151 0-17.305-10.404-22.374-20.13-22.374zm52.078 35.189s-3.198 1.065-7.549 1.065c-5.993 0-7.708-3.004-7.708-6.116 0-3.97 2.613-6.525 8.34-6.525h6.917zm-5.873-35.189c-7.095 0-11.085.93-14.953 2.02-1.035.291-1.467 1.006-1.175 2.17l1.196 4.852c.156.7.797 1.65 1.948 1.358 2.488-.614 6.303-1.83 11.892-1.83 5.59 0 7.044 2.083 7.044 7.074h-6.912c-14.7 0-18.79 7.758-18.79 14.11 0 8.01 3.9 14.771 17.731 14.771 10.419 0 15.607-2.631 16.774-3.239.944-.491 1.512-.869 1.512-2.51V32.433c0-10.942-6.474-14.573-16.267-14.573zm-84.597 34.568s-3.162.932-6.727.932c-8.37 0-10.384-5.923-10.384-12.95 0-2.506-.264-13.426 9.987-13.426 3.493 0 7.124.96 7.124.96zM211.47.005h-8c-.66 0-1.196.537-1.196 1.196v17.605c-1.554-.331-4.303-.946-8.78-.946-15.919 0-19.247 14.326-19.247 22.153 0 17.304 10.403 22.372 20.13 22.372 8.295 0 13.943-1.976 16.653-3.169 1.634-.705 1.634-1.655 1.634-2.497V1.2c0-.66-.534-1.196-1.194-1.196zm139.562 19.14h-8.16s-.956 0-1.276.8L330.4 49.537l-11.21-29.644c-.173-.465-.676-.748-1.172-.748h-8.165c-1.119 0-1.48.917-1.215 1.63l16.388 41.103-6.622 16.724c-.326.83.03 1.64 1.11 1.64h8.064a1.19 1.19 0 001.111-.752l23.444-58.605c.423-1.016-.281-1.74-1.099-1.74zm-286.097-.001h-8.54a1.17 1.17 0 00-1.128.865L47.14 48.73 39.69 23.18a5.52 5.52 0 00-5.307-4.035h-2.635a5.52 5.52 0 00-5.307 4.035L18.992 48.73 10.864 20.01a1.171 1.171 0 00-1.129-.865h-8.54c-.797 0-1.385.78-1.138 1.56L11.711 57.21a5.572 5.572 0 005.325 3.89h3.44a5.624 5.624 0 005.36-4.004l7.23-24.442 7.23 24.442a5.624 5.624 0 005.36 4.005h3.44a5.572 5.572 0 005.325-3.89l11.654-36.508a1.198 1.198 0 00-1.139-1.56zm82.21-.197c-1.889-.386-5.011-1.084-9.74-1.084-8.254 0-16.547 2.555-16.547 15.603v26.439c0 .66.536 1.196 1.196 1.196h8.006c.66 0 1.197-.536 1.197-1.197v-26.21c0-1.91.334-6.665 7.48-6.665 2.969 0 5.849.481 6.447.577.632.102 1.192-.15 1.358-.77l1.734-6.47c.204-.738-.254-1.24-1.13-1.419zM164.477.004h-7.997c-.662 0-1.198.536-1.198 1.197v58.704c0 .66.536 1.196 1.196 1.196h7.999c.661 0 1.197-.536 1.197-1.197V1.2c0-.661-.536-1.197-1.197-1.197zM91.063 53.349c-6.372 0-11.178-5.62-11.178-13.073 0-7.628 4.806-13.38 11.178-13.38 6.416 0 11.254 5.752 11.254 13.38 0 7.453-4.838 13.073-11.254 13.073zm0-35.49c-12.01 0-21.418 9.847-21.418 22.417 0 12.398 9.408 22.11 21.418 22.11s21.417-9.712 21.417-22.11c0-12.57-9.407-22.417-21.417-22.417M7.532 85.793v-.948c0-5.462 2.753-9.072 8.17-9.072 1.805 0 3.295.27 4.604.586l-.993 4.875c-.722-.136-1.67-.27-2.438-.27-2.302 0-3.115 1.489-3.115 3.745v1.084h5.282v4.965H13.76v18.1H7.532v-18.1h-3.07v-4.965h3.07M32.492 85.252c1.625 0 3.16.179 4.063.405l-.903 5.101c-.768-.27-1.715-.362-2.663-.362-1.67 0-2.799.317-3.747.769v17.694h-6.229V87.237c2.438-1.219 6.23-1.985 9.48-1.985M49.509 104.254c3.205 0 4.875-2.663 4.875-6.951 0-4.243-1.67-6.907-4.875-6.907-3.16 0-4.92 2.664-4.92 6.907 0 4.288 1.76 6.95 4.92 6.95zm0 5.145c-6.951 0-11.284-4.829-11.284-12.096 0-7.223 4.333-12.051 11.284-12.051 6.996 0 11.24 4.828 11.24 12.05 0 7.268-4.244 12.097-11.24 12.097M93.111 108.859V94.956c0-3.024-1.218-4.56-4.062-4.56-1.535 0-3.07.452-4.197 1.084.36 1.218.54 2.663.54 4.243v13.136h-6.048V94.956c0-3.024-1.174-4.56-4.062-4.56-1.264 0-2.483.271-3.657.813v17.65h-6.184V87.237c2.89-1.264 6.636-1.985 10.156-1.985 2.619 0 4.785.63 6.365 1.85 1.896-.948 4.604-1.85 7.358-1.85 6.41 0 9.975 3.34 9.975 9.252v14.355h-6.184M115.995 108.859V77.262h19.229v5.507H122.45v8.575h10.743v5.508H122.45v12.007h-6.455M141.993 77.262h6.455v31.597h-6.455V77.262M156.347 102.087c2.122.812 5.146 1.716 8.306 1.716 3.476 0 5.236-1.264 5.236-3.61 0-2.845-2.077-3.657-6.138-4.966-5.147-1.76-8.487-4.154-8.487-9.434 0-5.733 3.928-9.073 10.879-9.073 3.385 0 6.545.767 8.485 1.625l-1.263 5.372c-2.077-.813-4.288-1.4-6.816-1.4-3.161 0-4.74 1.084-4.74 3.295 0 2.437 1.579 3.205 5.102 4.468 5.369 1.852 9.478 3.883 9.478 10.066 0 6.049-4.694 9.253-11.465 9.253-3.883 0-7.493-.811-9.75-1.849l1.173-5.463"/></g></svg>