<svg xmlns="http://www.w3.org/2000/svg" width="90" height="90" viewBox="0 0 24 24" fill="#ffcd00"><path d="M17.31 21.859H2V2h15.31v3.066h-1.335V3.332H3.335v17.195h12.64v-2.36h1.335v3.692zm-.48-4.986a4.925 4.925 0 01-2.023-.417 5.366 5.366 0 01-1.64-1.116 5.106 5.106 0 01-1.096-1.638 4.876 4.876 0 01-.417-2.002 4.926 4.926 0 01.417-2.024 5.088 5.088 0 011.095-1.637 5.287 5.287 0 011.659-1.116 5.098 5.098 0 012.002-.397 5.242 5.242 0 012.024.397 5.32 5.32 0 012.753 2.754A5.15 5.15 0 0122 11.701a5.089 5.089 0 01-.396 2.001 5.527 5.527 0 01-1.117 1.648 5.207 5.207 0 01-3.66 1.523h.004zm0-9.032a3.844 3.844 0 00-3.858 3.859 3.844 3.844 0 003.859 3.838 3.844 3.844 0 003.838-3.838 3.688 3.688 0 00-1.127-2.723 3.787 3.787 0 00-2.711-1.136zm2.253 3.254v1.189h-1.668v1.67h-1.189v-1.67h-1.671v-1.189h1.669V9.426h1.189v1.67h1.67zm-11.181.98a8.122 8.122 0 012.514.439c.814.278 1.22.758 1.22 1.44v3.775H4.17v-3.776a1.518 1.518 0 011.21-1.449 7.528 7.528 0 012.524-.428h-.001zm2.545 1.878c0-.097-.215-.236-.646-.417a5.122 5.122 0 00-1.898-.272 5.671 5.671 0 00-1.922.282c-.431.174-.647.31-.647.407v2.587h5.114l-.001-2.587zm-2.544-2.42a2.363 2.363 0 01-1.637-.725 2.264 2.264 0 01-.683-1.653v-.022a2.372 2.372 0 01.824-1.388 2.357 2.357 0 013.046.01c.43.357.723.852.83 1.4a2.387 2.387 0 01-2.38 2.378zm0-3.504a1.189 1.189 0 00-.005 2.377c.316 0 .618-.127.84-.353a1.178 1.178 0 00-.001-1.679 1.159 1.159 0 00-.834-.343V8.03z" fill-rule="evenodd"></path></svg>