<svg width="48" height="48" viewBox="0 0 48 48" fill="none" xmlns="http://www.w3.org/2000/svg">
<path d="M31.68 28.3594C32.6859 30.6614 32.9335 33.2237 32.387 35.6757C31.8405 38.1277 30.5282 40.3424 28.64 41.9994L23 36.3594" stroke="black" stroke-width="2" stroke-linecap="round" stroke-linejoin="round"/>
<path d="M19.64 16.3206C17.338 15.3147 14.7757 15.0671 12.3237 15.6136C9.87164 16.1601 7.657 17.4724 6 19.3606L11.64 25.0006" stroke="black" stroke-width="2" stroke-linecap="round" stroke-linejoin="round"/>
<path d="M21.3799 37.5802C37.3799 25.9602 41.1399 13.5802 41.9799 8.30017C42.031 7.98835 42.0075 7.66885 41.9113 7.36786C41.8152 7.06687 41.649 6.79295 41.4266 6.56854C41.2041 6.34413 40.9317 6.17563 40.6315 6.07683C40.3314 5.97804 40.0121 5.95176 39.6999 6.00017C34.4799 6.86017 21.9999 10.5402 10.4199 26.6202L21.3799 37.5802ZM17.3799 39.1802L20.2199 36.3402L11.6599 27.8402L8.81987 30.6802C8.44736 31.0549 8.23828 31.5618 8.23828 32.0902C8.23828 32.6185 8.44736 33.1254 8.81987 33.5002L14.4999 39.1802C14.8746 39.5527 15.3815 39.7617 15.9099 39.7617C16.4382 39.7617 16.9451 39.5527 17.3199 39.1802H17.3799Z" stroke="black" stroke-width="2" stroke-linecap="round" stroke-linejoin="round"/>
</svg>
