<svg width="48" height="48" viewBox="0 0 48 48" fill="none" xmlns="http://www.w3.org/2000/svg">
<path d="M16 40H8C7.46957 40 6.96086 39.7893 6.58579 39.4142C6.21071 39.0391 6 38.5304 6 38V8C6 7.46957 6.21071 6.96086 6.58579 6.58579C6.96086 6.21071 7.46957 6 8 6H25.18C25.7047 6.00221 26.2075 6.21051 26.58 6.58L33.42 13.42C33.7895 13.7925 33.9978 14.2953 34 14.82V18" stroke="black" stroke-width="2" stroke-linecap="round" stroke-linejoin="round"/>
<path d="M41.4195 30.6791C41.792 30.3044 42.001 29.7975 42.001 29.2691C42.001 28.7407 41.792 28.2338 41.4195 27.8591L38.5795 25.0191C38.2047 24.6466 37.6978 24.4375 37.1695 24.4375C36.6411 24.4375 36.1342 24.6466 35.7595 25.0191L24.4395 36.3391V41.9991H30.0995L41.4195 30.6791Z" stroke="black" stroke-width="2" stroke-linecap="round" stroke-linejoin="round"/>
</svg>
