<svg width="48" height="48" viewBox="0 0 48 48" fill="none" xmlns="http://www.w3.org/2000/svg">
<path d="M42 42L33.32 33.32M38 22C38 25.1645 37.0616 28.2579 35.3035 30.8891C33.5454 33.5203 31.0466 35.5711 28.1229 36.7821C25.1993 37.9931 21.9823 38.3099 18.8786 37.6926C15.7749 37.0752 12.9239 35.5513 10.6863 33.3137C8.44866 31.0761 6.92481 28.2251 6.30744 25.1214C5.69008 22.0177 6.00693 18.8007 7.21793 15.8771C8.42894 12.9534 10.4797 10.4546 13.1109 8.69649C15.7421 6.93838 18.8355 6 22 6C26.2435 6 30.3131 7.68571 33.3137 10.6863C36.3143 13.6869 38 17.7565 38 22Z" stroke="black" stroke-width="2" stroke-linecap="round" stroke-linejoin="round"/>
</svg>
